<svg width="30" height="24" viewBox="0 0 30 24" fill="none" xmlns="http://www.w3.org/2000/svg">
<path d="M23.631 6.83497L25.9328 3.43773L27.7059 6.05693L27.1818 6.83497H23.631ZM16.9083 22.0962H13.0756L2.79526 6.82046H6.44232L12.0115 15.0999L12.9939 13.6723L16.6608 13.6615L16.6493 13.6791L13.8449 17.8246L15.0145 19.5626L20.3178 11.7325H17.9664V11.7371H12.0474L8.74103 6.82046H12.4171L13.7349 8.73957H25.9068L16.9083 22.0962ZM5.09932 1.90306H24.6723L21.33 6.83497L17.5867 6.82046L18.8564 4.91739H3.07486L5.09932 1.90306ZM25.9022 0H4.07639V0.0137612L0 6.08216L12.0634 24H17.9213L30 6.05387L25.9022 0Z" fill="white"/>
</svg>
