<svg width="24" height="24" viewBox="0 0 24 24" fill="none" xmlns="http://www.w3.org/2000/svg">
<path d="M12.2836 23.9877C11.3644 23.9508 10.4332 23.9613 9.51248 23.9625L5.52568 23.9638C4.15066 23.9595 2.9654 24.1835 1.74462 23.4737C1.01078 23.0471 0.408226 22.0656 0.209727 21.284C-0.0566128 20.2352 0.0187233 18.9586 0.0135618 17.8877L0.0151269 13.0231C-0.00285607 11.024 -0.00480529 9.02466 0.00927906 7.02548C0.00886724 5.87748 -0.00908856 4.70521 0.0414833 3.55807C0.0817047 3.09175 0.175408 2.38088 0.425577 1.97182C0.702268 1.51943 1.44654 0.713783 1.88917 0.449261C2.79496 -0.0920755 4.12413 0.0177385 5.15696 0.0220352L7.10725 0.0227051L12.1409 0.0162834L17.3351 0.0169149C18.4219 0.0128873 19.5494 -0.0301895 20.6124 0.0390957C22.1178 0.137219 23.4979 1.19168 23.8434 2.67839C23.9737 3.23901 23.9186 4.12542 23.9151 4.72032C23.9083 5.55689 23.9065 6.3935 23.9097 7.2301C23.9243 10.1305 23.9224 13.031 23.9038 15.9314L23.891 18.9598C23.8877 19.6437 23.8985 20.3268 23.8456 21.0246C23.7749 21.9566 23.1093 22.9092 22.3488 23.4278C22.0356 23.6413 21.4368 23.8382 21.0738 23.9354C20.8436 23.9313 20.6063 23.9566 20.3756 23.9738C19.4799 24.0405 18.5889 23.9585 17.6943 23.9606L14.379 23.9641C13.6703 23.9688 13.0024 23.9964 12.2836 23.9877Z" fill="#30333E"/>
<path d="M16.4122 3.79561C17.2979 3.66305 17.8328 3.88124 18.1616 4.7353C17.8415 6.41757 16.4701 5.50338 15.3705 5.47335C14.4789 5.8827 14.1298 8.0328 13.8903 8.93958C14.53 8.9046 15.2239 8.91679 15.8678 8.92256C15.8589 9.39486 15.8258 9.78277 15.7002 10.2369C15.1921 10.3169 14.1118 10.2719 13.5597 10.2608C13.3427 11.1739 13.083 12.1034 12.8608 13.0133L12.3451 15.0693C12.0988 16.0148 11.9361 16.7588 11.4239 17.6273C10.6508 18.9381 9.59173 19.833 8.10239 20.2139C7.19585 20.3729 6.13105 20.3966 5.88442 19.2699C5.80804 18.9208 6.21335 18.3545 6.48137 18.3136C7.34485 18.1815 8.48217 18.3913 9.33745 18.2365C9.8341 17.6893 10.6341 14.0484 10.8439 13.1926L11.5735 10.2733C11.3157 10.264 10.0179 10.36 9.89835 10.154C9.58254 9.60981 9.9621 8.89972 10.6632 8.91608C11.0353 8.92478 11.5212 8.91454 11.9232 8.91828C12.1568 7.83664 12.6145 6.43704 13.3156 5.57762C14.0619 4.66293 15.2207 3.91665 16.4122 3.79561Z" fill="#FAFAFA"/>
</svg>
