<svg width="24" height="24" viewBox="0 0 24 24" fill="none" xmlns="http://www.w3.org/2000/svg">
<path d="M10.7091 13.9949L11.1326 14.0246C12.3914 17.7356 10.6187 22.1849 7 23.9609V24C10.5627 23.6968 15.2019 20.2863 15.4746 15.0312L16 14.9652V14.1459C14.9292 13.5907 14.2287 11.2811 15.7287 10.0535C15.4732 6.97995 14.0535 3.91309 12.2478 1.76655L9.01249 0L8.5201 0.974231C8.08861 1.2054 7.73952 1.55125 7.51677 1.96813C7.29411 2.3851 7.20766 2.85458 7.26845 3.31752C7.4235 4.43317 8.27326 5.11643 9.83205 5.33873C10.6344 5.45054 10.9288 5.77263 11.0723 6.20512C11.2158 6.66192 11.1742 7.12553 10.7852 7.39361L10.8483 7.58762C11.5502 7.62943 11.9134 7.99192 12.0598 8.52146C12.2335 9.14806 12.1775 9.66417 11.6292 10.0198L11.6536 10.1842C12.3024 10.3905 12.6584 10.9928 12.6784 11.595C12.7 12.223 12.2063 12.8631 11.4656 13.1339C11.2216 13.2228 10.4923 13.3643 10.4923 13.3643L10.7091 13.9949ZM9.89088 4.40763C8.91913 4.53429 8.27178 4.00333 8.157 3.22586C8.03067 2.36751 8.50431 1.69787 9.47606 1.57253C10.4091 1.45126 11.0953 1.97674 11.2215 2.8297C11.3421 3.61256 10.8311 4.28769 9.89088 4.40763Z" fill="#FF159A"/>
</svg>
