<svg width="26" height="24" viewBox="0 0 26 24" fill="none" xmlns="http://www.w3.org/2000/svg">
<path d="M10.794 2.05469C11.7039 2.23375 12.5822 2.54438 13.4004 2.97659C14.5679 3.58243 15.6084 4.416 16.4926 5.37658C16.6016 5.49491 16.8795 5.76335 16.923 5.90158L16.9871 5.92809C17.1816 5.98715 17.3794 5.9977 17.5701 6.04783C20.0275 6.69421 22.0472 8.53702 23.2218 10.7263C24.246 12.648 24.7809 14.7878 24.78 16.9601C24.773 18.1212 24.5708 19.9187 23.4911 20.666C23.2424 20.8381 23.0565 20.4733 23.0402 20.2744C22.9881 19.9679 22.9801 19.651 22.9947 19.3414L22.9888 19.3529C22.9518 19.4269 22.9264 19.5022 22.8932 19.5769C22.6647 20.0931 22.3332 20.6979 21.7702 20.9079C21.352 21.0639 21.0285 20.8847 20.946 20.45C20.6889 20.7123 19.9086 21.0884 19.5654 21.2349C19.4378 21.2891 19.2737 21.3431 19.1463 21.3973C19.1093 21.4161 19.0732 21.4303 19.0337 21.444C17.2425 22.0659 15.2769 22.198 13.3974 22.002C12.7897 21.9386 12.2011 21.8552 11.6125 21.6964C11.064 21.5483 10.5798 21.3288 10.0685 21.0959C9.9433 21.1684 9.72874 21.2231 9.58796 21.2658C8.8657 21.4851 8.28697 21.4726 7.54515 21.4564C7.58457 21.2372 7.60803 21.069 7.55207 20.8473C7.38444 20.183 6.90462 19.5813 6.54259 19.0047C6.24506 18.5309 5.94139 18.0786 5.70405 17.5709C5.62581 17.4036 5.48842 17.1544 5.45136 16.9826C5.39332 16.8628 5.29281 16.7271 5.21756 16.6133C5.09856 16.4346 4.98533 16.2524 4.87805 16.0666C4.75073 15.8434 4.62896 15.6113 4.53011 15.3742C4.45751 15.2001 4.40169 15.0058 4.32817 14.8332L4.32347 14.6577L4.31152 14.4008C4.34737 13.6497 4.57105 12.7121 4.81819 12.0072C4.8664 11.8704 4.91937 11.7353 4.97701 11.6021C5.01913 11.5051 5.09661 11.3465 5.11836 11.2489C5.10296 10.9933 5.31155 10.321 5.40661 10.0598C5.88589 8.75286 6.69709 7.635 7.65123 6.62817C8.44901 5.78632 10.1168 4.48719 9.97655 3.20189C10.2147 3.45763 11.1615 4.41129 11.5411 4.06447C12.0713 3.58011 11.1328 2.44655 10.794 2.05469Z" fill="#FEFEFE"/>
<path d="M10.794 2.05469C11.7039 2.23375 12.5822 2.54438 13.4004 2.97659C14.5679 3.58243 15.6084 4.416 16.4926 5.37658C16.6016 5.49491 16.8795 5.76335 16.923 5.90158L16.9871 5.92809C16.4207 5.89815 16.0148 5.94567 15.4802 6.14435C15.4071 6.17152 15.1108 6.3214 15.0696 6.33259C15.0002 6.33035 14.8759 6.40147 14.8104 6.43503C12.922 7.40878 11.8306 9.44251 11.1861 11.375C10.8291 12.4454 10.6263 13.6642 11.2086 14.6889C11.5906 15.3749 12.0955 15.871 12.7628 16.2889C12.5584 16.3362 11.8951 16.367 11.6742 16.3765C9.74212 16.4599 7.86881 16.1865 6.06643 15.4873C5.67306 15.3332 5.28789 15.1592 4.91248 14.9663C4.74224 14.8789 4.49262 14.7215 4.32347 14.6577L4.31152 14.4008C4.34737 13.6497 4.57105 12.7121 4.81819 12.0072C4.8664 11.8704 4.91937 11.7353 4.97701 11.6021C5.01913 11.5051 5.09661 11.3465 5.11836 11.2489C5.10296 10.9933 5.31155 10.321 5.40661 10.0598C5.88589 8.75286 6.69709 7.635 7.65123 6.62817C8.44901 5.78632 10.1168 4.48719 9.97655 3.20189C10.2147 3.45763 11.1615 4.41129 11.5411 4.06447C12.0713 3.58011 11.1328 2.44655 10.794 2.05469Z" fill="#4CB5D9"/>
<path d="M10.7936 2.05469C11.7035 2.23375 12.5818 2.54438 13.4001 2.97659C14.5675 3.58243 15.608 4.416 16.4923 5.37658C16.6012 5.49491 16.8791 5.76335 16.9226 5.90158C16.4522 5.7445 16.0708 5.62506 15.5832 5.52815C13.6568 5.14525 11.8193 5.4287 10.0698 6.28675C8.3569 7.10616 6.90077 8.36941 5.85637 9.94208C5.69335 10.1901 5.55447 10.4291 5.41312 10.6888C5.33093 10.8397 5.21533 11.1136 5.12295 11.2419L5.118 11.2489C5.1026 10.9933 5.31118 10.321 5.40624 10.0598C5.88553 8.75286 6.69672 7.635 7.65086 6.62817C8.44865 5.78632 10.1164 4.48719 9.97619 3.20189C10.2143 3.45763 11.1611 4.41129 11.5407 4.06447C12.0709 3.58011 11.1324 2.44655 10.7936 2.05469Z" fill="#FB4909"/>
<path d="M4.32324 14.6562C4.49239 14.72 4.74201 14.8774 4.91225 14.9648C5.28767 15.1577 5.67283 15.3317 6.06621 15.4858C7.86859 16.185 9.74189 16.4584 11.674 16.375C11.8949 16.3655 12.5582 16.3347 12.7625 16.2874L12.7853 16.2963C13.1873 16.5814 13.7445 16.7027 14.23 16.7718C14.5728 16.8179 14.917 16.8514 15.2624 16.8719C15.8325 16.9106 16.5918 16.9223 17.1244 17.1161C17.255 17.1636 17.4113 17.3109 17.4234 17.4474C17.4764 18.0488 16.7001 18.4 17.0956 19.094C17.1886 19.2573 17.329 19.4089 17.4854 19.524C17.641 19.6369 17.816 19.7206 18.0019 19.7714C18.0528 20.4309 18.2666 21.0414 18.9469 21.3034C19.002 21.3247 19.1005 21.3628 19.1461 21.3958C19.1093 21.4147 19.0732 21.4288 19.0337 21.4425C17.2425 22.0644 15.2769 22.1965 13.3974 22.0005C12.7894 21.9371 12.2009 21.8537 11.6123 21.695C11.0638 21.5468 10.5796 21.3273 10.0683 21.0944C9.94308 21.1669 9.72851 21.2216 9.58773 21.2643C8.86547 21.4836 8.28674 21.4711 7.54492 21.455C7.58434 21.2357 7.6078 21.0675 7.55184 20.8458C7.38421 20.1815 6.90439 19.5798 6.54236 19.0032C6.24483 18.5294 5.94116 18.0771 5.70382 17.5694C5.62558 17.4021 5.48819 17.1529 5.45113 16.9811C5.39309 16.8613 5.29258 16.7256 5.21733 16.6118C5.09833 16.4332 4.9851 16.2509 4.87782 16.0651C4.7505 15.8419 4.62873 15.6098 4.52988 15.3727C4.45728 15.1986 4.40146 15.0043 4.32794 14.8317L4.32324 14.6562Z" fill="#0C6492"/>
<path d="M5.45117 16.9824C5.5759 17.0958 5.79532 17.4285 5.91572 17.5788C6.22387 17.9668 6.55117 18.3395 6.89642 18.6956C7.57125 19.3952 8.3229 20.0184 9.13742 20.5534C9.31686 20.6689 9.49991 20.7787 9.68632 20.8828C9.77989 20.9343 9.99067 21.041 10.0683 21.0958C9.94312 21.1682 9.72855 21.223 9.58777 21.2656C8.86551 21.4849 8.28678 21.4725 7.54496 21.4563C7.58438 21.237 7.60784 21.0688 7.55188 20.8472C7.38425 20.1829 6.90443 19.5811 6.5424 19.0046C6.24487 18.5307 5.9412 18.0785 5.70386 17.5707C5.62562 17.4034 5.48823 17.1543 5.45117 16.9824Z" fill="#FB4909"/>
<path d="M12.0371 17.5688C12.4706 17.8528 12.9745 17.8644 13.4705 17.762C14.4965 17.5501 15.0277 17.1824 16.1191 17.3485C16.2179 17.6771 16.3801 17.8758 16.7473 17.9041C16.682 18.0399 16.5063 18.4258 16.4582 18.562C16.4672 18.7212 15.8615 19.8878 15.7271 20.1058C15.3314 20.7444 14.7268 21.6343 13.9396 21.8148C12.8176 22.0719 11.7121 21.4141 11.4796 20.2855C11.2905 19.3671 11.4474 18.7841 11.9143 18.0204C11.9509 17.8688 11.9919 17.7181 12.0371 17.5688Z" fill="#FB4909"/>
<path d="M16.4582 18.5631C16.4672 18.7223 15.8615 19.8889 15.7271 20.1069C15.3314 20.7455 14.7268 21.6354 13.9396 21.8159C12.8176 22.073 11.7121 21.4151 11.4796 20.2865C11.2905 19.3682 11.4474 18.7852 11.9143 18.0215C11.8782 18.3242 11.872 18.5465 11.8976 18.8473C12.026 20.3517 13.2348 22.0675 14.8354 20.782C15.4985 20.2496 15.9466 19.5112 16.3451 18.7716C16.364 18.7366 16.4355 18.5808 16.4582 18.5631Z" fill="#00334E"/>
<path d="M15.1634 15.8906C15.3628 15.9268 15.5482 15.9605 15.7519 15.9747C16.0132 15.9931 16.2799 15.9804 16.5404 15.9944C17.1549 16.0276 17.9688 16.1621 18.3465 16.6922C18.4588 16.8499 18.511 17.0453 18.4756 17.2426C18.3915 17.7097 17.681 18.0991 17.9934 18.6081C18.0801 18.7492 18.2754 18.8771 18.4347 18.9068C18.7079 18.9579 19.0051 18.87 19.258 18.7753C19.1426 19.1753 19.0863 19.4766 19.1126 19.9082C19.1483 20.4939 19.5995 20.8194 20.1427 20.514C20.5518 20.2839 20.8114 19.7897 21.0111 19.3728C20.925 19.7251 20.9029 20.0897 20.9457 20.4497C20.6886 20.7121 19.9082 21.0882 19.5651 21.2346C19.4375 21.2891 19.2733 21.3428 19.146 21.3971C19.1004 21.3641 19.0019 21.3259 18.9468 21.3047C18.2665 21.0426 18.0527 20.4322 18.0018 19.7727C17.8159 19.7218 17.6409 19.6381 17.4853 19.5253C17.3289 19.4102 17.1885 19.2585 17.0955 19.0952C16.7 18.4012 17.4763 18.05 17.4233 17.4486C17.4112 17.3122 17.2549 17.1648 17.1243 17.1174C16.5917 16.9236 15.8324 16.9119 15.2623 16.8731C14.917 16.8526 14.5727 16.8191 14.2299 16.7731C13.7444 16.7039 13.1872 16.5826 12.7852 16.2976C12.8665 16.2765 13.0878 16.2531 13.1814 16.2407C13.4195 16.2095 13.6571 16.1742 13.894 16.1348C14.1331 16.094 14.3714 16.0475 14.6085 15.9958C14.7402 15.9672 15.0447 15.8935 15.1634 15.8906Z" fill="#00334E"/>
<path d="M12.7626 16.2875C12.0953 15.8696 11.5905 15.3734 11.2085 14.6874C10.6261 13.6628 10.829 12.4439 11.186 11.3735C11.8305 9.44108 12.9218 7.40735 14.8102 6.43359L14.8076 6.47451C13.1346 7.59655 12.1491 9.55214 11.742 11.4702C11.5534 12.3591 11.5848 13.2212 12.142 13.981C12.8637 14.9909 13.9702 15.6078 15.1636 15.8894C15.0449 15.8923 14.7404 15.966 14.6086 15.9946C14.3716 16.0463 14.1333 16.0928 13.8942 16.1336C13.6573 16.173 13.4197 16.2083 13.1816 16.2395C13.088 16.252 12.8667 16.2753 12.7853 16.2964L12.7626 16.2875Z" fill="#0C6492"/>
<path d="M14.8103 6.43452C14.8758 6.40097 15.0001 6.32985 15.0695 6.33208C14.9814 6.37845 14.8942 6.42625 14.8076 6.47544L14.8103 6.43452Z" fill="#00334E"/>
<path d="M18.8561 9.5702C21.1987 9.3281 22.5125 11.9708 21.7712 13.9207C21.3595 15.0035 20.3433 15.4934 19.2378 15.0532C17.4499 14.2555 16.7268 11.347 18.7198 10.4223C18.1696 10.1852 17.7148 10.1157 17.1152 10.1947C17.6851 9.82764 18.1724 9.63999 18.8561 9.5702Z" fill="#252727"/>
<path d="M20.5651 11.6897C20.7058 11.6863 20.8712 11.7134 20.9744 11.8075C21.3385 12.1394 21.2767 12.9566 20.8293 13.199C20.7322 13.2516 20.6541 13.263 20.5503 13.2717C19.5536 13.2618 19.7667 11.8236 20.5651 11.6897Z" fill="#4CB5D9"/>
<path d="M23.238 14.4111C23.2977 14.4084 23.3866 14.4094 23.4376 14.4419C23.5904 14.5392 23.673 14.8133 23.7061 14.9793C23.7622 15.2613 23.7919 15.6926 23.6184 15.9434C23.5421 16.0537 23.4679 16.0861 23.3448 16.1086C22.6589 16.0876 22.6445 14.5737 23.238 14.4111Z" fill="#252727"/>
<path d="M0.307998 10.1797C0.653085 10.2739 0.990042 10.3951 1.31568 10.5421C2.6128 11.1429 3.5103 12.1189 4.02493 13.441C4.10003 13.6357 4.16383 13.8345 4.21606 14.0364C4.23708 14.1172 4.27629 14.3103 4.30231 14.3782L4.31096 14.4001L4.3229 14.6571L4.3276 14.8326C4.23566 15.5602 4.13462 16.0965 3.74241 16.7351C3.29608 17.4595 2.57972 17.9817 1.74774 18.1888C1.61568 17.9086 1.54046 17.4783 1.5148 17.1645C1.44442 16.3038 1.73065 15.4357 2.22665 14.7322C2.27494 14.6637 2.41665 14.5155 2.47796 14.445C2.22132 14.2327 2.0343 14.0936 1.80167 13.8443C1.05909 13.0485 0.589019 12.0492 0.394769 10.9874C0.350303 10.7444 0.302878 10.4216 0.307998 10.1797Z" fill="#FB4909"/>
</svg>
