<svg width="24" height="24" viewBox="0 0 24 24" fill="none" xmlns="http://www.w3.org/2000/svg">
<g clip-path="url(#clip0_8609_9102)">
<path d="M23.9997 12.6683C23.9798 12.7319 23.9737 12.8038 23.9691 12.8704C23.9404 13.2896 23.8882 13.6943 23.8144 14.1074C23.5522 15.5677 23.0187 16.9661 22.2416 18.2308C20.9788 20.2989 19.1161 21.9351 16.9003 22.9227C13.3711 24.5041 9.09511 24.2589 5.79809 22.2226C3.06811 20.562 1.1124 17.8854 0.362492 14.7838C-0.373457 11.707 0.138974 8.46456 1.78811 5.76319C3.4607 3.03852 6.15244 1.09149 9.26752 0.353044C12.336 -0.367696 15.5654 0.148148 18.2551 1.78865C20.9305 3.41721 22.8613 6.02594 23.6341 9.05686C23.7409 9.47594 23.8507 10.0256 23.9007 10.4551C23.9216 10.6334 23.9399 10.812 23.9557 10.9908C23.9658 11.105 23.9715 11.2568 23.9997 11.3649V12.6683Z" fill="#252525"/>
<path d="M4.07858 7.01265C4.21402 7.00664 4.35247 7.00428 4.4875 7.01731C5.02118 7.07177 5.49094 7.3922 5.73559 7.86866C5.99913 8.37158 5.92197 8.94073 6.04341 9.49005C6.31392 10.6961 6.81508 11.8824 7.41314 12.9609C7.64351 13.3764 7.89632 13.9515 8.42389 13.9811C8.92413 14.0091 9.06947 13.8291 9.34253 13.4572C9.76378 12.8833 10.1053 12.2751 10.3169 11.5941C10.4266 11.24 10.3994 10.8722 10.5431 10.5296C10.8183 9.85126 11.4245 9.38433 12.179 9.44669C12.6084 9.48446 13.0046 9.69282 13.2787 10.025C13.9314 10.8068 13.7865 12.1261 12.9296 12.6998C12.7713 12.8057 12.5684 12.894 12.3987 12.9869C12.1845 13.1044 12.0179 13.2333 11.8316 13.3873C11.0456 14.0579 10.1767 15.3834 9.90791 16.3878C9.79796 16.7985 9.80414 17.2477 9.55703 17.6336C9.32085 18.0024 8.96831 18.31 8.53468 18.4076C8.12836 18.4962 7.70341 18.4227 7.35059 18.2029C7.19106 18.1019 7.11576 18.0169 6.98927 17.8795C6.41812 17.2584 6.61619 16.4812 6.41123 15.6933C6.00901 14.147 5.29026 12.6507 4.39318 11.3295C4.18779 11.027 3.92196 10.7226 3.67161 10.4575C3.54377 10.3222 3.38955 10.2124 3.25558 10.0841C2.22696 9.0991 2.65826 7.31202 4.07858 7.01265Z" fill="#FEFEFE"/>
<path d="M19.5264 7.00134C20.8353 6.90332 21.6176 8.19799 21.2476 9.37346C21.0854 9.88877 20.7069 10.1277 20.3382 10.4833C20.0363 10.7743 19.7572 11.1527 19.5206 11.4993C18.7628 12.6754 18.0919 14.0096 17.7084 15.3597C17.6186 15.6733 17.55 15.9925 17.5033 16.3154C17.4261 16.8854 17.5212 17.2798 17.1137 17.8006C16.8192 18.1772 16.5087 18.3657 16.0387 18.4304C15.619 18.4766 15.3289 18.4012 14.9711 18.1697C14.6196 17.9426 14.3224 17.4775 14.2536 17.0718C14.1569 16.5014 14.2653 15.8782 14.6871 15.4553C14.9506 15.1912 15.2057 14.9997 15.4489 14.7089C15.6953 14.4142 15.8746 14.1563 16.0867 13.8347C16.8961 12.6071 17.5417 11.211 17.9188 9.78948C17.9683 9.60279 18.0214 9.34119 18.0421 9.15176C18.099 8.62815 18.0802 8.16686 18.4011 7.70976C18.6851 7.30524 19.0418 7.08873 19.5264 7.00134Z" fill="#FEFEFE"/>
</g>
<defs>
<clipPath id="clip0_8609_9102">
<rect width="24" height="24" fill="white"/>
</clipPath>
</defs>
</svg>
