<svg width="25" height="24" viewBox="0 0 25 24" fill="none" xmlns="http://www.w3.org/2000/svg">
<path d="M17.9703 12.033C20.0957 12.111 22.609 12.0379 24.7534 12.0078C24.3313 13.1719 23.2863 14.7593 22.6687 15.8957C21.2173 18.5665 19.4637 21.3141 18.0722 23.9996C13.6705 23.8745 8.91715 23.969 4.47461 23.9504C5.35395 22.1725 6.86843 19.5616 8.00125 17.9034C8.8366 17.8535 14.1376 18.0112 14.4978 17.7371C15.0755 17.2973 16.0202 15.3347 16.3995 14.6427C16.8233 13.8695 17.2995 12.6419 17.9519 12.0494C17.9579 12.0439 17.9641 12.0385 17.9703 12.033Z" fill="#FEE11A"/>
<path d="M4.6709 0.00223628C5.76345 -0.00982362 6.86581 0.0294485 7.95905 0.0589025C11.2851 0.148501 14.6275 0.00362788 17.9503 0.0428999C18.6054 0.777858 20.5104 4.38122 21.104 5.41844C21.8939 6.77595 22.6741 8.13903 23.4444 9.50775C23.8668 10.2506 24.5097 11.216 24.7535 12.008C22.6091 12.0381 20.0958 12.1112 17.9704 12.0332C16.8489 10.2331 15.741 8.10741 14.6156 6.24462C12.5178 6.1023 10.0781 6.2396 7.89953 6.14884C7.3996 5.26754 6.93685 4.37472 6.44782 3.49976C5.71011 2.17967 5.17516 1.43072 4.6709 0.00223628Z" fill="#0684FA"/>
<path d="M2.63323 1.51474C2.84535 1.09751 3.11576 0.178408 3.65141 0.316787C4.35875 1.33546 5.57297 3.77798 6.23292 4.97863L8.39645 8.9475C8.88447 9.83243 9.61778 11.0867 9.99805 12.0031C7.86482 12.0224 5.18305 11.9556 3.1034 12.0706C2.38299 10.1087 0.650441 8.0427 0 6.20828C0.178033 5.84702 0.642402 4.87875 0.903769 4.59936C1.48734 3.57512 2.0638 2.54686 2.63323 1.51474Z" fill="#0684FA"/>
<path d="M2.63376 1.51562C2.65447 1.98828 1.84595 3.84558 1.43894 4.28747C1.40005 4.32968 1.36047 4.37127 1.32012 4.41209L1.29322 4.40637C1.12616 4.46906 1.05813 4.50857 0.904297 4.60025C1.48787 3.57601 2.06433 2.54775 2.63376 1.51562Z" fill="#107CEF"/>
<path d="M9.99861 12.0022C9.71444 12.9404 8.50718 14.8028 8.02665 15.6838L5.25219 20.7006C4.95966 21.2333 3.78564 23.5842 3.41342 23.8196C3.1662 23.6883 0.302445 18.6268 0.163297 18.1599C-0.159836 17.0758 2.67462 13.3777 3.10397 12.0697C5.18362 11.9546 7.86539 12.0214 9.99861 12.0022Z" fill="#FEE11A"/>
</svg>
